<svg width="343" height="48" viewBox="0 0 343 48" fill="none" xmlns="http://www.w3.org/2000/svg">
<rect width="343" height="48" rx="10" fill="url(#paint0_linear_451_12769)"/>
<path d="M146.012 19.176V17.86H148.756V16.754H150.604V17.86H153.334V19.176H146.012ZM157.688 22.536H156.064V26.876H154.216V16.796H156.064V21.024H157.688V22.536ZM153.796 25.056C151.122 25.574 148.084 25.63 145.886 25.63L145.69 24.216C146.6 24.216 147.636 24.216 148.756 24.174V23.432C147.356 23.222 146.53 22.522 146.53 21.514C146.53 20.282 147.776 19.512 149.68 19.512C151.57 19.512 152.816 20.282 152.816 21.514C152.816 22.522 151.962 23.222 150.604 23.432V24.09C151.668 24.02 152.648 23.95 153.656 23.796L153.796 25.056ZM148.28 21.514C148.28 22.004 148.784 22.27 149.68 22.27C150.576 22.27 151.066 22.004 151.066 21.514C151.066 21.01 150.576 20.744 149.68 20.744C148.784 20.744 148.28 21.01 148.28 21.514ZM156.498 28.01V29.48H147.482V26.246H149.33V28.01H156.498ZM167.655 16.81H169.503V26.218H167.655V21.64H165.639V20.142H167.655V16.81ZM165.597 24.552C164.183 24.09 163.217 23.18 162.671 22.004C162.097 23.292 161.089 24.3 159.577 24.804L158.653 23.334C160.781 22.662 161.691 20.94 161.691 19.33V19.148H159.157V17.678H166.087V19.148H163.581V19.316C163.581 20.842 164.463 22.438 166.493 23.11L165.597 24.552ZM169.797 29.48H161.005V25.434H162.853V28.01H169.797V29.48ZM181.724 23.376V29.704H179.876V16.81H181.724V21.85H183.572V23.376H181.724ZM179.036 18.714V20.184H171.532V18.714H174.388V17.034H176.236V18.714H179.036ZM175.326 20.912C177.188 20.912 178.574 22.186 178.574 23.978C178.574 25.812 177.188 27.072 175.326 27.072C173.45 27.072 172.05 25.812 172.05 23.978C172.05 22.186 173.45 20.912 175.326 20.912ZM175.326 25.56C176.222 25.56 176.824 24.986 176.824 23.978C176.824 23.012 176.222 22.41 175.326 22.41C174.43 22.41 173.814 22.984 173.814 23.992C173.814 25 174.43 25.56 175.326 25.56ZM195.219 29.69H193.357V16.796H195.219V29.69ZM191.383 18.14C191.383 22.074 190.053 25.322 185.475 27.52L184.509 26.064C187.799 24.496 189.227 22.466 189.493 19.61H185.195V18.14H191.383Z" fill="#F4F5F7"/>
<defs>
<linearGradient id="paint0_linear_451_12769" x1="23.5261" y1="-35.3832" x2="32.5355" y2="85.7916" gradientUnits="userSpaceOnUse">
<stop stop-color="#6AE4FF"/>
<stop offset="0.432292" stop-color="#236FFF"/>
<stop offset="0.583333" stop-color="#236FFF"/>
<stop offset="1" stop-color="#A38EFF"/>
</linearGradient>
</defs>
</svg>
