<svg width="22" height="24" viewBox="0 0 22 24" fill="none" xmlns="http://www.w3.org/2000/svg">
<path d="M8.71045 2.26493C8.71045 3.44263 9.70719 4.43866 10.8849 4.43866C12.0626 4.43866 13.0586 3.44192 13.0586 2.26493C13.0586 2.08396 13.0586 1.90228 12.9681 1.72132C12.7872 1.35867 12.6055 1.1777 12.6055 0.634094C12.6055 7.19198e-08 11.7904 0 11.4278 0C10.9747 0 10.4311 -2.51719e-07 9.97864 0.271452C9.616 0.452419 9.34454 0.724578 9.16358 0.99603C8.9819 1.35867 8.80093 1.72061 8.80093 2.08325" fill="#EE3737"/>
<path d="M21.7535 4.98082C21.7535 4.98082 21.3004 4.70936 20.7568 4.89033C19.941 5.0713 17.4053 5.52443 13.4191 5.70539C11.6073 5.70539 9.52402 5.70539 7.53125 5.61491C5.90042 5.43394 2.72995 4.98082 2.00537 4.89033C1.64273 4.89033 0.737186 4.79985 0.374543 5.16178C-0.169067 5.61491 -0.0785832 6.33949 0.374543 6.97358C0.374543 6.97358 1.09912 8.15129 2.91092 8.51322C5.4473 8.96635 9.43354 8.78538 10.7017 8.69419C13.6007 8.42274 15.865 7.96961 17.5863 7.51649C17.5863 7.51649 19.9417 6.88239 21.1194 6.15781C21.5718 5.88636 22.2066 5.43324 21.9345 4.98011L21.7535 4.98082Z" fill="white"/>
<path d="M13.1479 10.2353C11.6987 9.42026 9.97741 9.42026 8.52826 10.2353C6.26333 11.5035 5.44827 14.4025 6.80694 16.7579C7.89345 18.4793 9.4338 18.1166 9.79644 17.6635C10.3401 17.0294 10.1591 16.4858 9.79644 16.1238C9.25283 15.3993 9.16235 14.9461 9.16235 14.5835C9.16235 13.6779 9.88693 12.8622 10.8837 12.8622C11.3361 12.8622 11.8804 13.0431 12.1519 13.4963C12.605 14.0399 12.605 14.7645 12.605 15.3986C12.4233 19.0222 10.9741 22.1021 10.8837 22.2831C10.8837 22.4641 10.702 22.8267 10.9741 23.0077C11.2463 23.0982 11.5178 23.0077 11.7899 22.7355C12.424 22.1919 13.7827 20.5618 14.4168 18.931C14.7794 18.0247 15.685 15.7605 15.4135 13.4956C15.1421 11.7743 13.9644 10.687 12.9676 10.1441L13.1479 10.2353Z" fill="white"/>
</svg>
