<svg width="25" height="27" viewBox="0 0 25 27" fill="none" xmlns="http://www.w3.org/2000/svg">
<path d="M25 22.4736C25 24.5423 23.4017 26.2195 21.4294 26.2195H3.57111C1.59944 26.2195 0 24.5423 0 22.4736V3.74533C0 1.67669 1.59944 0 3.57111 0H21.4289C23.4017 0 24.9994 1.67669 24.9994 3.74533V22.4736H25Z" fill="#FFE700"/>
<path d="M18.1038 15.7327C17.9755 14.798 17.5466 14.0102 16.8305 13.3899C16.7243 13.2983 16.6138 13.2123 16.4893 13.1107C16.5921 13.0325 16.6788 12.9728 16.7593 12.9052C17.271 12.4764 17.6477 11.9527 17.8938 11.3279C18.1277 10.7344 18.1866 10.1186 18.1027 9.49882C17.9999 8.73837 17.681 8.06501 17.1593 7.49495C16.7832 7.08457 16.3455 6.76018 15.8316 6.54968C15.3366 6.34645 14.8293 6.25488 14.2821 6.25488L8.33601 6.256C8.2949 6.256 8.25323 6.25377 8.21268 6.25879C8.06712 6.27554 7.98101 6.36878 7.97434 6.51563C7.97268 6.55694 7.97434 6.59826 7.97434 6.63958V19.5489C7.97434 19.6142 7.97101 19.679 7.97546 19.7437C7.98379 19.8571 8.06101 19.9414 8.17268 19.9598C8.21268 19.9665 8.2549 19.9643 8.29601 19.9643H14.4538C15.086 19.9643 15.6771 19.8046 16.2221 19.4897C17.0032 19.0386 17.561 18.3915 17.8932 17.5439C18.1243 16.9554 18.1882 16.3463 18.1038 15.7327ZM13.371 16.1966H12.2599V10.0354H13.3588C13.3588 10.0354 13.3543 10.0326 13.3588 10.0326C13.3588 10.0337 13.3588 10.0343 13.3588 10.0354H13.371V16.1966Z" fill="#281E20"/>
</svg>
