<svg width="33" height="24" viewBox="0 0 33 24" fill="none" xmlns="http://www.w3.org/2000/svg">
<path d="M32.4645 12.3171L32.1796 12.1309C31.2057 11.1392 29.8507 10.7099 28.0393 10.8181C26.5306 10.9117 25.3338 11.5227 24.42 12.0896C24.42 12.0749 24.42 12.0621 24.42 12.0474C24.42 11.5658 24.473 11.042 24.526 10.5347C24.5782 10.0182 24.633 9.49254 24.633 8.99624C24.633 8.49995 24.5773 8.00733 24.4056 7.59543C24.3625 7.49086 24.2673 7.42756 24.1469 7.42756C23.659 7.43857 22.7083 7.77891 22.4765 7.98531L22.3516 8.26511C22.3444 8.81644 22.2249 10.3549 22.1036 10.542C22.109 10.5356 22.0407 10.7273 22.0407 10.7273C21.835 12.9244 21.8314 14.8563 22.0201 16.5149C22.0416 16.681 22.3552 16.9296 22.596 17.0204C22.8611 17.1204 23.6895 16.8938 24.1684 16.7103C24.1621 16.7122 24.3472 16.681 24.3472 16.681C24.4982 16.6645 24.5871 16.5342 24.58 16.3581C24.5773 16.3544 24.5916 15.881 24.5916 15.881C24.9367 14.449 26.3321 12.7409 27.9845 12.484C28.918 12.3327 29.6557 12.5776 30.2388 13.2262C30.3179 13.3418 30.4877 14.3738 29.8722 15.5563C29.414 16.4324 28.4975 17.1718 27.2926 17.6332C26.1515 18.0763 24.8971 18.2542 23.3463 18.2001C23.2816 18.1579 21.8952 17.1984 21.8952 17.1984C20.6651 16.3168 19.1376 15.2196 17.7539 14.6848C17.5104 14.5885 17.0746 14.2188 16.8122 13.9977L16.6685 13.8775C15.8697 13.2234 14.3494 12.1896 13.1292 11.3594C13.1292 11.3594 12.5784 10.9814 12.4724 10.9099C12.4724 10.8631 12.4724 10.7686 12.4724 10.7686C12.5083 10.7291 13.2757 10.2594 13.2757 10.2594C14.3485 9.61729 14.8454 9.30356 14.9505 9.14119C14.9289 9.16779 15.0925 9.05495 15.0925 9.05495C15.1023 9.05037 17.7548 7.51746 17.7548 7.51746C20.3111 6.08454 23.2052 4.45715 24.7255 2.85085C24.7282 2.84902 24.8001 2.60408 24.8001 2.60408L24.8333 2.38667C24.9349 2.04174 24.9394 1.77937 24.8549 1.47389C24.8333 1.38583 24.7543 1.28492 24.6491 1.26657C23.4613 1.14548 21.9302 1.87203 20.5366 3.2077C20.2212 3.5086 19.958 3.65629 19.6794 3.81041L19.4665 3.93242C17.93 4.82409 14.468 7.01841 12.6548 8.20181C12.7743 6.21206 13.1346 3.382 13.5785 1.02255L13.529 0.741841C13.5236 0.73175 13.3412 0.384988 13.3412 0.384988L13.2002 0.129961L13.1597 0.118953C12.7985 -0.0681881 12.5029 0.00795271 12.2855 0.0629943L11.9243 0.199681L11.4409 0.379483C11.3456 0.398748 11.2782 0.459293 11.2414 0.552864C10.3752 2.68848 9.65371 6.20105 9.4821 9.01184C7.75334 7.88899 6.15397 7.08171 5.36956 6.69092L5.348 6.67807L5.25545 6.65789C4.97242 6.62028 4.62918 6.40929 4.29943 6.2038C4.26348 6.1827 3.64081 5.76897 3.64081 5.76897L2.63536 5.11214C2.64255 5.11765 2.3703 5.05068 2.3703 5.05068C1.93901 5.12682 1.11057 5.69467 0.864377 6.08363C0.832929 6.13408 0.818553 6.18912 0.818553 6.24783C0.818553 6.32948 0.843711 6.41112 0.864377 6.49185L0.908405 6.70009L0.956027 6.82577C1.43763 7.33032 2.65333 8.17062 3.84567 8.82378L5.2276 9.57143L7.34362 10.7512C7.34362 10.7612 7.70392 11.0438 7.70392 11.0438L7.95281 11.1896C7.95281 11.1896 7.98157 11.2071 7.99864 11.2181C7.43526 11.6034 4.15117 13.8408 4.15117 13.8408L2.1286 15.2095C1.93721 15.3425 1.13933 15.7076 0.962316 15.7792C0.524736 15.9618 0.192284 16.2415 0.0548099 16.5452L0 16.6645L0.0548099 16.7433L0.210254 16.8635C0.203066 16.8635 0.416914 17.0011 0.416914 17.0011L0.639747 17.1571C0.645138 17.1589 0.850001 17.1919 0.850001 17.1919C1.20582 17.2057 1.73235 16.9993 2.71713 16.558C3.62194 16.1498 6.0785 14.6362 7.12887 13.9903L7.57633 13.7161C7.76233 13.7326 7.96539 13.572 8.14779 13.4326C8.35805 13.261 8.81629 12.973 9.09573 12.8473C9.10472 12.8446 9.26286 12.7537 9.41381 12.6684C9.41201 12.7161 9.41111 12.7904 9.41111 12.7904C9.45784 16.0718 9.64203 18.4561 9.99335 20.2935L9.99875 20.3256L10.0338 20.399C10.2063 20.6577 10.4031 21.4356 10.5774 22.1209L10.9772 23.4896C10.9862 23.5061 11.0905 23.6171 11.0905 23.6171C11.3187 23.7767 12.015 24.0492 12.4796 23.9923L12.5955 23.9776L12.6683 23.8116C12.7078 23.607 12.7222 23.4052 12.7222 23.1832C12.7222 22.9337 12.7042 22.6585 12.6826 22.3209L12.6512 21.8274C12.5047 19.5367 12.3565 16.2315 12.3565 14.0325V13.8582C12.7383 14.1013 14.4051 15.1737 14.4051 15.1737C17.2426 17.0525 21.5277 19.8917 24.1172 20.6421C24.252 20.6834 24.3931 20.6513 24.4928 20.5541C24.4964 20.5486 24.8908 20.2935 24.8908 20.2935L24.9654 20.2623C25.1137 20.1908 25.2134 19.9348 25.2305 19.6578C27.413 19.5459 30.4572 18.6872 32.0862 16.5956C32.7161 15.7856 33 14.7921 33 13.9436C33 13.2455 32.8113 12.6455 32.4672 12.3152" fill="#776841"/>
</svg>
