<svg width="21" height="26" viewBox="0 0 21 26" fill="none" xmlns="http://www.w3.org/2000/svg">
<path d="M10.4198 9.86916L5.22656 0L10.4198 2.6066L15.6147 0L10.4198 9.86916Z" fill="#FFD32A"/>
<path d="M17.264 7.72857L20.8096 6.22399V1.03906L14.4553 3.73715L10.9346 10.4125C13.5653 10.6662 15.6155 12.8885 15.6155 15.5816C15.6155 18.4569 13.29 20.7774 10.4198 20.7774C7.5495 20.7774 5.22152 18.4569 5.22152 15.5816C5.22152 12.8877 7.27753 10.6662 9.9016 10.4125L6.3851 3.73715L0.0307731 1.03906V6.22399L3.57555 7.72857C1.38731 9.63653 0 12.4486 0 15.5816C0 21.3363 4.66344 25.9997 10.4189 25.9997C16.1744 25.9997 20.837 21.3363 20.837 15.5816C20.837 12.4486 19.453 9.63653 17.2623 7.72857H17.264Z" fill="#FFD32A"/>
</svg>
