<svg width="25" height="25" viewBox="0 0 25 25" fill="none" xmlns="http://www.w3.org/2000/svg">
<path d="M9.6811 23.0966C8.30234 22.9607 6.65393 22.5275 5.21702 21.2817C3.89495 20.1434 3.07656 18.5749 2.67973 17.1918C2.27416 15.7788 2.10336 14.1311 2.77494 14.2619C2.98208 14.299 3.33967 15.2075 3.72706 15.8682C4.12826 16.5493 4.45315 16.9272 4.75768 17.1598C4.8965 17.2637 5.3682 16.2171 6.05504 15.6196C6.45333 15.2875 6.88578 15.177 6.9621 16.1604C7.04423 17.3633 6.82764 18.7952 7.18014 18.7952C7.50357 18.7952 8.2471 18.5481 9.8737 18.4092C10.4879 18.3576 10.8382 18.4732 10.2538 19.2938C9.96092 19.7052 9.57353 20.2852 8.64903 20.9495C10.0321 22.2455 11.6915 22.087 11.7234 22.6379C11.7416 22.9556 11.1231 23.1315 10.3112 23.1315C10.1114 23.1315 9.89987 23.1198 9.68182 23.0973M14.3371 11.4534C13.0702 11.1889 12.8115 10.0397 12.8115 10.0397C12.7068 9.63345 12.6828 9.12103 12.7686 8.4676C12.9394 7.10189 13.3093 6.463 13.7273 5.40328C14.2927 3.98159 12.922 3.15082 13.1451 2.62968C13.4547 1.9232 14.433 2.82157 15.529 2.88771C16.471 2.93859 17.0364 2.89425 17.7676 2.99092C18.7408 3.11811 19.9066 3.44955 20.4248 4.05718C20.898 4.61539 20.1712 5.2928 19.3019 4.86833C18.663 4.55724 17.8606 4.74695 18.3309 5.41273C18.8971 6.04434 19.1689 6.06251 19.7496 6.21297C21.3406 6.63453 21.374 8.16088 20.294 8.94732C19.0715 9.84568 17.8243 9.47281 17.3301 7.71315C17.08 6.83368 16.4615 6.38814 15.8241 6.63889C15.1947 6.88674 15.5675 8.04241 16.0494 9.11449C16.8809 11.2397 15.199 11.4629 14.5529 11.4629C14.4519 11.4629 14.377 11.4578 14.3385 11.4534M13.4234 23.4949C13.4125 23.2143 13.8239 23.1431 13.8239 23.1431C17.5227 22.4126 16.4419 19.9872 15.1336 18.7516C14.5834 18.2333 9.43689 13.7902 9.43689 13.7902C4.53019 9.56367 4.92267 6.26821 4.92267 6.26821C5.16469 2.20739 8.71226 1.20073 11.4029 1.43477C11.7169 1.46166 11.8942 1.64991 11.8346 1.91593C11.7787 2.20158 11.3608 2.22048 11.3608 2.22048C10.5053 2.27135 9.73997 2.35567 9.15852 2.75106C6.99335 4.20982 7.62786 6.68759 10.5177 9.4481C10.8825 9.79335 11.2685 10.1611 11.6675 10.534C11.6675 10.534 12.2431 11.045 13.4016 12.1425C15.625 14.1892 16.8402 15.2918 16.8402 15.2918C20.7577 18.5539 19.416 21.5368 17.9239 22.5711C16.7806 23.3626 15.5167 23.734 13.8574 23.8241L13.8145 23.8263C13.6633 23.8263 13.4344 23.734 13.4242 23.4942M11.9306 0.012356C5.0375 0.323441 -0.299474 6.16936 0.0130547 13.0656C0.324857 19.9603 6.1706 25.2982 13.0644 24.9871C19.9568 24.6753 25.2988 18.8322 24.987 11.9368C24.6854 5.23029 19.1514 0.00145367 12.504 0C12.3151 0 12.1225 0.00436086 11.9306 0.012356Z" fill="white"/>
</svg>
