<svg width="29" height="29" viewBox="0 0 29 29" fill="none" xmlns="http://www.w3.org/2000/svg">
<g clip-path="url(#clip0_677_33009)">
<path d="M14.5 29C22.5081 29 29 22.5081 29 14.5C29 6.49187 22.5081 0 14.5 0C6.49187 0 0 6.49187 0 14.5C0 22.5081 6.49187 29 14.5 29Z" fill="#FCC800"/>
<g clip-path="url(#clip1_677_33009)">
<path d="M14.5 29C22.5081 29 29 22.5081 29 14.5C29 6.49187 22.5081 0 14.5 0C6.49187 0 0 6.49187 0 14.5C0 22.5081 6.49187 29 14.5 29Z" fill="#10896D"/>
<path d="M12.6011 6.82826C12.6011 7.8043 13.4271 8.62978 14.4032 8.62978C15.3792 8.62978 16.2047 7.80372 16.2047 6.82826C16.2047 6.67828 16.2047 6.52772 16.1297 6.37774C15.9797 6.07719 15.8292 5.92721 15.8292 5.47669C15.8292 4.95117 15.1537 4.95117 14.8531 4.95117C14.4776 4.95117 14.0271 4.95117 13.6521 5.17614C13.3516 5.32612 13.1266 5.55168 12.9766 5.77665C12.826 6.07719 12.6761 6.37715 12.6761 6.6777" fill="white"/>
<path d="M23.4123 9.07967C23.4123 9.07967 23.0368 8.8547 22.5863 9.00468C21.9102 9.15466 19.8087 9.5302 16.505 9.68018C15.0035 9.68018 13.277 9.68018 11.6254 9.60519C10.2739 9.45521 7.64628 9.07967 7.04577 9.00468C6.74523 9.00468 5.99474 8.92969 5.6942 9.22965C5.24367 9.60519 5.31866 10.2057 5.6942 10.7312C5.6942 10.7312 6.2947 11.7072 7.79626 12.0072C9.89832 12.3827 13.202 12.2328 14.253 12.1572C16.6556 11.9322 18.5321 11.5567 19.9587 11.1811C19.9587 11.1811 21.9108 10.6556 22.8868 10.0551C23.2618 9.83015 23.7879 9.45462 23.5623 9.07908L23.4123 9.07967Z" fill="white"/>
<path d="M16.28 13.4344C15.079 12.7589 13.6524 12.7589 12.4514 13.4344C10.5743 14.4854 9.8988 16.888 11.0248 18.8401C11.9253 20.2666 13.2019 19.9661 13.5024 19.5906C13.9529 19.065 13.803 18.6145 13.5024 18.3146C13.0519 17.7141 12.9769 17.3385 12.9769 17.038C12.9769 16.2875 13.5774 15.6114 14.4035 15.6114C14.7784 15.6114 15.2295 15.7614 15.4545 16.1369C15.83 16.5874 15.83 17.188 15.83 17.7135C15.6795 20.7166 14.4785 23.2692 14.4035 23.4191C14.4035 23.5691 14.2529 23.8697 14.4785 24.0196C14.704 24.0946 14.929 24.0196 15.1545 23.7941C15.6801 23.3436 16.8061 21.9926 17.3316 20.641C17.6321 19.8899 18.3826 18.0134 18.1576 16.1363C17.9327 14.7098 16.9566 13.8087 16.1306 13.3588L16.28 13.4344Z" fill="white"/>
</g>
</g>
<defs>
<clipPath id="clip0_677_33009">
<rect width="29" height="29" fill="white"/>
</clipPath>
<clipPath id="clip1_677_33009">
<rect width="29" height="29" fill="white"/>
</clipPath>
</defs>
</svg>
