<svg width="29" height="29" viewBox="0 0 29 29" fill="none" xmlns="http://www.w3.org/2000/svg">
<g clip-path="url(#clip0_677_33021)">
<path d="M14.5 29C22.5081 29 29 22.5081 29 14.5C29 6.49187 22.5081 0 14.5 0C6.49187 0 0 6.49187 0 14.5C0 22.5081 6.49187 29 14.5 29Z" fill="#5F511E"/>
<path d="M24.9113 14.7021L24.7256 14.5831C24.0905 13.9498 23.207 13.6756 22.026 13.7448C21.0423 13.8045 20.2619 14.1947 19.6661 14.5568C19.6661 14.5474 19.6661 14.5392 19.6661 14.5298C19.6661 14.2222 19.7007 13.8877 19.7352 13.5637C19.7692 13.2339 19.805 12.8982 19.805 12.5813C19.805 12.2643 19.7686 11.9497 19.6567 11.6867C19.6286 11.6199 19.5665 11.5794 19.488 11.5794C19.1699 11.5865 18.5501 11.8038 18.3989 11.9356C18.3989 11.9368 18.3175 12.1143 18.3175 12.1143C18.3128 12.4664 18.2349 13.4489 18.1558 13.5684C18.1593 13.5643 18.1148 13.6868 18.1148 13.6868C17.9806 15.0899 17.9783 16.3237 18.1013 17.383C18.1153 17.489 18.3198 17.6478 18.4768 17.7058C18.6497 17.7696 19.1898 17.6249 19.5021 17.5077C19.498 17.5089 19.6187 17.489 19.6187 17.489C19.7171 17.4785 19.7751 17.3953 19.7704 17.2828C19.7686 17.2804 19.778 16.9781 19.778 16.9781C20.003 16.0636 20.9128 14.9727 21.9902 14.8087C22.5989 14.712 23.0799 14.8685 23.4601 15.2827C23.5117 15.3565 23.6224 16.0156 23.2211 16.7707C22.9223 17.3302 22.3247 17.8024 21.5391 18.0971C20.7951 18.3801 19.9772 18.4937 18.966 18.4592C18.9238 18.4322 18.0199 17.8194 18.0199 17.8194C17.2178 17.2564 16.2219 16.5557 15.3196 16.2142C15.1609 16.1527 14.8767 15.9166 14.7057 15.7754L14.6119 15.6986C14.0911 15.2809 13.0998 14.6206 12.3042 14.0904C12.3042 14.0904 11.9451 13.8491 11.876 13.8034C11.876 13.7735 11.876 13.7131 11.876 13.7131C11.8994 13.6879 12.3997 13.388 12.3997 13.388C13.0992 12.9779 13.4232 12.7775 13.4918 12.6738C13.4777 12.6908 13.5843 12.6188 13.5843 12.6188C13.5908 12.6158 15.3202 11.6369 15.3202 11.6369C16.987 10.7217 18.874 9.68243 19.8653 8.65659C19.8671 8.65542 19.9139 8.499 19.9139 8.499L19.9356 8.36015C20.0018 8.13987 20.0047 7.97231 19.9497 7.77722C19.9356 7.72098 19.8841 7.65653 19.8155 7.64481C19.041 7.56748 18.0427 8.03148 17.134 8.88449C16.9284 9.07665 16.7567 9.17098 16.5751 9.2694L16.4363 9.34732C15.4345 9.91677 13.1771 11.3181 11.9949 12.0739C12.0728 10.8032 12.3077 8.9958 12.5971 7.48898L12.5649 7.3097C12.5614 7.30326 12.4425 7.0818 12.4425 7.0818L12.3505 6.91894L12.3241 6.91191C12.0886 6.79239 11.8959 6.84102 11.7541 6.87617L11.5186 6.96346L11.2034 7.07829C11.1413 7.09059 11.0973 7.12926 11.0733 7.18902C10.5086 8.5529 10.0381 10.7961 9.92622 12.5912C8.79903 11.8741 7.7562 11.3586 7.24474 11.109L7.23068 11.1008L7.17034 11.0879C6.98579 11.0639 6.762 10.9291 6.54699 10.7979C6.52355 10.7844 6.11755 10.5202 6.11755 10.5202L5.46198 10.1007C5.46666 10.1042 5.28915 10.0615 5.28915 10.0615C5.00793 10.1101 4.46777 10.4728 4.30725 10.7212C4.28674 10.7534 4.27737 10.7885 4.27737 10.826C4.27737 10.8782 4.29377 10.9303 4.30725 10.9819L4.33596 11.1149L4.36701 11.1951C4.68103 11.5173 5.47369 12.054 6.25113 12.4711L7.15218 12.9486L8.53187 13.702C8.53187 13.7085 8.7668 13.8889 8.7668 13.8889L8.92909 13.982C8.92909 13.982 8.94783 13.9932 8.95896 14.0002C8.59163 14.2463 6.45032 15.6752 6.45032 15.6752L5.13155 16.5493C5.00676 16.6342 4.48652 16.8674 4.37111 16.9131C4.08579 17.0297 3.86903 17.2084 3.77939 17.4023L3.74365 17.4784L3.77939 17.5288L3.88074 17.6056C3.87606 17.6056 4.01549 17.6935 4.01549 17.6935L4.16078 17.7931C4.1643 17.7942 4.29787 17.8153 4.29787 17.8153C4.52987 17.8241 4.87319 17.6923 5.51529 17.4105C6.10525 17.1498 7.70699 16.1831 8.39185 15.7707L8.68361 15.5955C8.80488 15.606 8.93729 15.5035 9.05622 15.4145C9.19331 15.3049 9.4921 15.121 9.6743 15.0407C9.68016 15.0389 9.78327 14.9809 9.88169 14.9265C9.88052 14.9569 9.87993 15.0044 9.87993 15.0044C9.9104 17.1 10.0305 18.6226 10.2596 19.7961L10.2631 19.8166L10.2859 19.8635C10.3984 20.0287 10.5267 20.5255 10.6404 20.9631L10.9011 21.8372C10.9069 21.8478 10.9749 21.9187 10.9749 21.9187C11.1237 22.0206 11.5778 22.1946 11.8806 22.1583L11.9562 22.1489L12.0037 22.0429C12.0294 21.9122 12.0388 21.7833 12.0388 21.6416C12.0388 21.4822 12.0271 21.3065 12.013 21.0909L11.9925 20.7757C11.897 19.3128 11.8004 17.2019 11.8004 15.7976V15.6863C12.0494 15.8416 13.1361 16.5264 13.1361 16.5264C14.9863 17.7263 17.7802 19.5395 19.4687 20.0187C19.5566 20.0451 19.6485 20.0246 19.7136 19.9625C19.7159 19.959 19.9731 19.7961 19.9731 19.7961L20.0217 19.7762C20.1184 19.7305 20.1834 19.567 20.1946 19.3901C21.6176 19.3186 23.6025 18.7703 24.6647 17.4345C25.0753 16.9172 25.2605 16.2827 25.2605 15.7408C25.2605 15.295 25.1374 14.9118 24.9131 14.7009" fill="#F8B500"/>
</g>
<defs>
<clipPath id="clip0_677_33021">
<rect width="29" height="29" fill="white"/>
</clipPath>
</defs>
</svg>
