<svg width="29" height="29" viewBox="0 0 29 29" fill="none" xmlns="http://www.w3.org/2000/svg">
<g clip-path="url(#clip0_677_32998)">
<path d="M14.5 29C22.5081 29 29 22.5081 29 14.5C29 6.49187 22.5081 0 14.5 0C6.49187 0 0 6.49187 0 14.5C0 22.5081 6.49187 29 14.5 29Z" fill="#FCC800"/>
<path d="M14.5004 12.2955L10.8423 5.34375L14.5004 7.17983L18.1597 5.34375L14.5004 12.2955Z" fill="white"/>
<path d="M19.3208 10.7882L21.8183 9.72841V6.07617L17.3424 7.9767L14.8624 12.6788C16.7155 12.8575 18.1597 14.4229 18.1597 16.3199C18.1597 18.3452 16.5216 19.9798 14.4998 19.9798C12.478 19.9798 10.8382 18.3452 10.8382 16.3199C10.8382 14.4223 12.2864 12.8575 14.1348 12.6788L11.6578 7.9767L7.18183 6.07617V9.72841L9.67876 10.7882C8.13737 12.1322 7.16016 14.113 7.16016 16.3199C7.16016 20.3735 10.4451 23.6584 14.4992 23.6584C18.5533 23.6584 21.8377 20.3735 21.8377 16.3199C21.8377 14.113 20.8628 12.1322 19.3197 10.7882H19.3208Z" fill="white"/>
</g>
<defs>
<clipPath id="clip0_677_32998">
<rect width="29" height="29" fill="white"/>
</clipPath>
</defs>
</svg>
