<svg width="29" height="29" viewBox="0 0 29 29" fill="none" xmlns="http://www.w3.org/2000/svg">
<g clip-path="url(#clip0_677_33005)">
<path d="M14.5 29C22.5081 29 29 22.5081 29 14.5C29 6.49187 22.5081 0 14.5 0C6.49187 0 0 6.49187 0 14.5C0 22.5081 6.49187 29 14.5 29Z" fill="#236FFF"/>
<path d="M12.2279 23.0426C11.1166 22.9331 9.78783 22.5839 8.62959 21.5797C7.56391 20.6623 6.90423 19.398 6.58435 18.2831C6.25745 17.1442 6.11977 15.816 6.6611 15.9215C6.82807 15.9514 7.11631 16.6837 7.42858 17.2162C7.75197 17.7652 8.01385 18.0698 8.25932 18.2573C8.37122 18.3411 8.75145 17.4975 9.30508 17.0159C9.62613 16.7481 9.97472 16.6591 10.0362 17.4518C10.1024 18.4214 9.92785 19.5755 10.212 19.5755C10.4727 19.5755 11.072 19.3763 12.3832 19.2644C12.8782 19.2228 13.1606 19.316 12.6896 19.9774C12.4535 20.309 12.1412 20.7765 11.396 21.312C12.5109 22.3566 13.8484 22.2289 13.8742 22.6729C13.8888 22.929 13.3903 23.0707 12.7359 23.0707C12.5748 23.0707 12.4043 23.0614 12.2285 23.0432M15.9809 13.6577C14.9598 13.4445 14.7512 12.5182 14.7512 12.5182C14.6669 12.1908 14.6475 11.7777 14.7167 11.251C14.8543 10.1502 15.1525 9.63524 15.4894 8.78105C15.9452 7.63511 14.8403 6.96548 15.0201 6.54542C15.2697 5.97596 16.0583 6.70008 16.9417 6.7534C17.701 6.79441 18.1568 6.75867 18.7462 6.83659C19.5307 6.93911 20.4704 7.20627 20.8881 7.69604C21.2695 8.14598 20.6836 8.692 19.9829 8.34986C19.468 8.09911 18.8212 8.25202 19.2002 8.78867C19.6566 9.29778 19.8757 9.31243 20.3438 9.4337C21.6263 9.7735 21.6532 11.0038 20.7826 11.6377C19.7972 12.3618 18.7919 12.0613 18.3935 10.6429C18.192 9.93402 17.6934 9.57489 17.1796 9.77701C16.6723 9.97679 16.9728 10.9083 17.3612 11.7724C18.0314 13.4855 16.6758 13.6654 16.1549 13.6654C16.0735 13.6654 16.0132 13.6613 15.9821 13.6577M15.2445 23.3637C15.2357 23.1375 15.5673 23.0801 15.5673 23.0801C18.5488 22.4913 17.6776 20.5363 16.623 19.5403C16.1795 19.1226 12.0311 15.5413 12.0311 15.5413C8.07595 12.1345 8.39231 9.47823 8.39231 9.47823C8.58741 6.20503 11.447 5.39362 13.6158 5.58227C13.8689 5.60394 14.0119 5.75568 13.9638 5.9701C13.9187 6.20035 13.5819 6.21558 13.5819 6.21558C12.8923 6.25659 12.2754 6.32455 11.8067 6.64326C10.0614 7.81907 10.5729 9.81627 12.9023 12.0414C13.1964 12.3196 13.5074 12.6161 13.8291 12.9166C13.8291 12.9166 14.2931 13.3285 15.2269 14.2131C17.0191 15.8629 17.9986 16.7517 17.9986 16.7517C21.1564 19.381 20.0749 21.7854 18.8722 22.619C17.9506 23.257 16.9318 23.5564 15.5943 23.6291L15.5597 23.6308C15.4378 23.6308 15.2533 23.5564 15.2451 23.3631M14.0412 4.43574C8.48488 4.68649 4.18292 9.39855 4.43484 14.9572C4.68617 20.5146 9.39823 24.8172 14.9551 24.5664C20.5108 24.3151 24.8169 19.6054 24.5655 14.0473C24.3224 8.64162 19.8617 4.42695 14.5034 4.42578C14.3511 4.42578 14.1958 4.42988 14.0412 4.43633" fill="white"/>
</g>
<defs>
<clipPath id="clip0_677_33005">
<rect width="29" height="29" fill="white"/>
</clipPath>
</defs>
</svg>
