<svg width="154" height="154" viewBox="0 0 154 154" fill="none" xmlns="http://www.w3.org/2000/svg">
<path d="M77.0005 76.6021C66.4801 76.6021 57.474 72.8562 49.9821 65.3643C42.4903 57.8725 38.7444 48.8664 38.7444 38.346C38.7444 27.8255 42.4903 18.8194 49.9821 11.3276C57.474 3.83576 66.4801 0.0898437 77.0005 0.0898438C87.521 0.0898438 96.5271 3.83576 104.019 11.3276C111.511 18.8194 115.257 27.8255 115.257 38.346C115.257 48.8664 111.511 57.8725 104.019 65.3643C96.5271 72.8562 87.521 76.6021 77.0005 76.6021ZM0.488281 153.114V126.335C0.488281 120.915 1.88463 115.936 4.67733 111.396C7.47002 106.856 11.1745 103.388 15.7907 100.99C25.6736 96.049 35.7158 92.3445 45.9174 89.877C56.1191 87.4094 66.4801 86.1725 77.0005 86.1661C87.521 86.1597 97.882 87.3967 108.084 89.877C118.285 92.3572 128.327 96.0617 138.21 100.99C142.833 103.381 146.541 106.85 149.333 111.396C152.126 115.942 153.519 120.922 153.513 126.335V153.114H0.488281Z" fill="white"/>
</svg>
