<svg width="879" height="580" viewBox="0 0 879 580" fill="none" xmlns="http://www.w3.org/2000/svg">
<path d="M475.786 364.791C467.368 358.988 357.44 427.059 340.675 437.177C278.354 475.033 219.712 517.701 158.381 556.972L133.339 552.868C117.282 532.419 97.4042 510.696 77.8803 493.572C40.2472 460.528 -44.0026 430.455 28.5046 382.764C67.411 388.07 116.433 407.6 155.127 408.025C210.091 408.661 288.399 323.75 332.045 288.512C345.344 277.757 381.137 265.516 366.565 248.887C358.642 239.901 322 217.541 309.479 209.757C254.657 175.864 194.033 150.32 140.484 114.162C116.009 84.16 178.188 42.9074 202.239 45.4548C209.101 46.1623 214.972 51.6816 221.409 52.9552C323.768 73.0508 420.397 97.5335 517.663 135.319C536.055 135.39 603.186 75.5981 625.257 61.0925C688.002 19.9107 741.339 -7.11927 819.576 1.65486C865.556 6.82028 891.447 45.667 871.64 88.6886C829.338 180.322 702.221 206.432 631.694 268.629C612.665 348.87 596.537 431.304 564.422 507.512C547.869 546.783 526.081 609.617 476.918 562.704L475.927 364.72L475.786 364.791Z" fill="url(#paint0_linear_692_13259)"/>
<defs>
<linearGradient id="paint0_linear_692_13259" x1="60.2465" y1="-427.101" x2="712.478" y2="815.075" gradientUnits="userSpaceOnUse">
<stop stop-color="#6AE4FF"/>
<stop offset="0.432292" stop-color="#236FFF"/>
<stop offset="0.583333" stop-color="#236FFF"/>
<stop offset="1" stop-color="#A38EFF"/>
</linearGradient>
</defs>
</svg>
