<svg width="19" height="11" viewBox="0 0 19 11" fill="none" xmlns="http://www.w3.org/2000/svg">
<path d="M10.6599 0.526595L18.6686 9.01064C18.7791 9.12766 18.8616 9.25404 18.916 9.38979C18.9705 9.52553 18.9985 9.6722 19 9.82979C19 10.1418 18.8984 10.4149 18.6951 10.6489C18.4919 10.883 18.2253 11 17.8953 11L1.10466 11C0.773268 11 0.505943 10.883 0.302687 10.6489C0.099432 10.4149 -0.00145714 10.1418 1.53611e-05 9.82979C1.53679e-05 9.75177 0.110479 9.47872 0.33141 9.01064L8.34013 0.526595C8.52423 0.33156 8.70834 0.195037 8.89245 0.117023C9.07656 0.0390082 9.27908 1.05752e-06 9.50001 1.07683e-06C9.72094 1.09615e-06 9.92346 0.0390083 10.1076 0.117023C10.2917 0.195037 10.4758 0.33156 10.6599 0.526595Z" fill="#CBD0D7"/>
</svg>
