<svg width="3346" height="1465" viewBox="0 0 3346 1465" fill="none" xmlns="http://www.w3.org/2000/svg">
<path d="M1406.32 1459.4C1395.36 1448.71 1410.56 1407.25 1412.76 1391.4C1429.38 1268.35 1448.13 1145.93 1466.52 1023.17C1461.35 1023.59 1457.04 1020.76 1453.08 1025.86C1444.66 1036.68 1438.79 1052.04 1427.26 1064.77C1384.11 1112.39 1322.99 1155.98 1255.36 1144.52C1182.22 1132.14 1202.38 1003.78 1209.1 951.7C1231.24 779.826 1266.33 609.085 1289.39 437.282C1292.78 432.541 1299.36 432.116 1304.53 430.559C1327.23 423.696 1418.56 402.68 1438.65 402.539C1477.41 402.256 1468.64 444.57 1465.88 469.406C1450.67 604.981 1408.87 750.815 1396.56 885.47C1395.71 894.456 1394.58 921.345 1396.42 928.208C1397.05 930.614 1415.87 943.563 1419.69 943.634C1450.46 943.634 1484.27 889.079 1491.63 862.402L1571.14 360.296C1576.94 354.14 1584.93 353.291 1592.5 351.026C1608.14 346.356 1702.08 329.869 1713.68 332.134C1717.22 332.841 1720.54 332.983 1722.66 336.45L1731.15 380.32C1793.05 312.392 1914.08 222.74 2000.24 303.901C2101.82 399.567 2042.47 703.76 1990.9 819.169C1943.44 925.378 1811.51 1078.01 1682.2 1006.47C1673.71 1001.8 1650.58 976.325 1643.58 988L1579.28 1404.7C1576.45 1410.71 1566.05 1421.47 1560.6 1425.36C1549.64 1433.15 1457.25 1462.58 1442.04 1464.35C1432.63 1465.48 1413.04 1465.84 1406.32 1459.26V1459.4ZM1837.33 429.357C1815.97 432.47 1782.37 466.576 1768.5 483.275C1717.64 544.906 1697.27 624.652 1685.88 702.416C1678.95 749.754 1649.17 931.888 1749.54 879.738C1831.25 837.283 1880.62 652.177 1886.42 566.134C1888.69 532.311 1891.23 421.361 1837.26 429.286L1837.33 429.357Z" fill="url(#paint0_linear_692_13261)"/>
<path d="M2796.03 901.394C2798.01 904.507 2799.78 962.247 2802.89 975.337C2826.1 1072.21 2922.23 1025.43 2962.13 967.766C3022.11 869.411 3037.96 746.715 3067.95 636.26C3048.43 631.165 3030.6 668.313 3017.66 682.182C2965.31 738.223 2911.62 788.887 2829.56 791.647C2643.94 797.873 2706.83 502.949 2727.98 392.707C2746.02 298.526 2770.85 205.336 2792.85 112.076C2805.02 89.0085 2856.16 90.919 2880.71 86.1781C2924.92 77.6163 2976.28 43.7934 2971.18 110.944C2961.35 239.513 2901.22 391.999 2893.02 522.55C2884.81 653.1 2990.07 577.034 3030.39 515.544C3120.87 377.635 3109.41 227.838 3143.36 77.5455C3148.59 54.2658 3160.97 29.5709 3185.1 23.061C3214.31 15.136 3272.53 4.94664 3303.16 1.12564C3362.23 -6.16254 3343.62 37.2836 3338.6 80.2343C3315.33 281.119 3275.57 505.497 3237.23 704.754C3198.89 904.012 3133.88 1109.57 2912.68 1185C2829.77 1213.3 2646.35 1225.05 2618.55 1115.86C2597.26 1032.23 2642.18 964.016 2713.41 924.674C2726.14 917.668 2786.91 886.818 2796.03 901.323V901.394Z" fill="url(#paint1_linear_692_13261)"/>
<path d="M1193.63 352.73C1150.41 392.072 1078.89 412.45 1023.5 429.786C858.257 481.582 686.857 512.858 519.135 555.384C487.444 685.651 460.634 819.811 439.554 952.413C433.117 992.817 407.58 1113.6 429.934 1143.11C436.725 1152.1 450.872 1154.71 461.695 1154.22C521.399 1151.25 595.462 1057.63 627.649 1011.57C696.902 983.689 664.999 1105.61 651.629 1138.23C566.46 1346.82 168.908 1501.72 210.714 1139.29L306.919 594.867C299.209 594.443 291.569 594.584 283.929 595.929C211.917 608.312 110.973 642.135 61.8799 697.61C49.3592 711.762 43.2756 746.999 18.0219 719.545C-8.50515 690.675 -1.36054 624.657 11.5847 590.551C53.2498 481.157 235.968 445.707 337.549 422.215C350.706 414.573 374.545 254.304 382.539 226.708C387.137 210.787 388.905 200.456 404.397 191.753C419.889 183.049 529.251 156.019 550.119 153.613C570.987 151.208 582.305 154.321 582.588 177.247C583.366 230.458 550.756 311.123 547.855 366.032C547.502 372.896 545.592 380.609 553.868 383.934C738.213 344.875 944.771 354.286 1106.34 246.166C1137.39 225.363 1181.6 189.771 1205.58 161.751C1219.59 145.335 1236.5 96.5816 1262.53 140.523C1297.12 198.829 1239.33 311.194 1193.49 352.942L1193.63 352.73Z" fill="url(#paint2_linear_692_13261)"/>
<path d="M2236.6 861.388C2215.73 978.848 2206.25 1099.35 2182.63 1216.39C2178.31 1237.83 2171.73 1285.23 2154.97 1298.04C2142.66 1307.52 2042.7 1331.79 2023.68 1333.21C1992.2 1335.54 1994.6 1313.68 1995.95 1287.71C2002.95 1151.71 2048.22 972.267 2069.51 832.164C2100.07 631.703 2126.39 430.535 2158.57 230.358C2172.58 205.946 2249.05 219.602 2276.85 209.484C2279.82 208.422 2280.1 201.983 2283.29 201.205C2306.98 195.615 2314.69 207.644 2315.4 229.296C2315.61 236.372 2304.3 251.869 2317.38 249.18C2322.48 248.189 2381.54 195.898 2398.59 186.062C2518.78 116.577 2632.52 154.504 2655.16 296.234C2682.4 466.552 2617.24 731.191 2479.09 843.698C2409.91 900.022 2310.24 920.967 2236.39 861.317L2236.6 861.388ZM2419.11 302.674C2382.46 310.174 2330.19 393.882 2316.32 427.351C2290.43 489.548 2259.73 640.831 2267.16 706.142C2274.02 766.783 2322.05 774.071 2365.49 738.833C2446.69 673.027 2487.16 469.382 2476.62 369.965C2472.87 334.374 2463.03 293.616 2419.11 302.674Z" fill="url(#paint3_linear_692_13261)"/>
<path d="M1073.73 737.847C1060.71 722.138 1077.05 663.196 1057.25 642.676C1045.65 642.817 1028.17 662.63 1020.32 671.333C936.709 763.532 905.23 946.232 881.533 1066.1C875.803 1095.25 866.749 1186.74 854.016 1204.72C843.688 1219.29 822.042 1222.12 805.842 1226.51C784.126 1232.38 700.442 1252.9 685.162 1242.08C667.336 1229.48 677.098 1177.54 679.503 1157.09C702.281 964.276 756.184 769.264 780.589 576.02L786.248 564.204C839.16 545.382 899.147 525.145 956.021 524.579C971.796 528.329 951.635 602.343 956.728 616.565C1013.6 560.736 1087.1 441.295 1182.38 461.108C1252.84 475.755 1238.62 558.897 1215.14 608.003C1199.43 640.906 1124.95 733.176 1090.28 741.455C1085.05 742.729 1077.13 741.88 1073.8 737.847H1073.73Z" fill="url(#paint4_linear_692_13261)"/>
<path d="M1504.38 141.37C1530.69 168.188 1521.07 250.834 1500.77 281.261C1483.65 306.876 1425.59 338.419 1395.17 336.438C1381.02 335.518 1331.91 304.753 1331.21 291.096C1327.33 269.831 1332.48 245.457 1337.15 222.743C1343.3 193.024 1376.48 144.908 1405.27 133.374C1430.17 123.397 1484.36 120.991 1504.38 141.37Z" fill="url(#paint5_linear_692_13261)"/>
<defs>
<linearGradient id="paint0_linear_692_13261" x1="1260.01" y1="-607.987" x2="2709.66" y2="1345.32" gradientUnits="userSpaceOnUse">
<stop stop-color="#6AE4FF"/>
<stop offset="0.432292" stop-color="#236FFF"/>
<stop offset="0.583333" stop-color="#236FFF"/>
<stop offset="1" stop-color="#A38EFF"/>
</linearGradient>
<linearGradient id="paint1_linear_692_13261" x1="2663.45" y1="-887.243" x2="4177.84" y2="845.932" gradientUnits="userSpaceOnUse">
<stop stop-color="#6AE4FF"/>
<stop offset="0.432292" stop-color="#236FFF"/>
<stop offset="0.583333" stop-color="#236FFF"/>
<stop offset="1" stop-color="#A38EFF"/>
</linearGradient>
<linearGradient id="paint2_linear_692_13261" x1="87.3188" y1="-787.109" x2="1362.53" y2="1688.84" gradientUnits="userSpaceOnUse">
<stop stop-color="#6AE4FF"/>
<stop offset="0.432292" stop-color="#236FFF"/>
<stop offset="0.583333" stop-color="#236FFF"/>
<stop offset="1" stop-color="#A38EFF"/>
</linearGradient>
<linearGradient id="paint3_linear_692_13261" x1="2040.95" y1="-718.461" x2="3537.45" y2="869.679" gradientUnits="userSpaceOnUse">
<stop stop-color="#6AE4FF"/>
<stop offset="0.432292" stop-color="#236FFF"/>
<stop offset="0.583333" stop-color="#236FFF"/>
<stop offset="1" stop-color="#A38EFF"/>
</linearGradient>
<linearGradient id="paint4_linear_692_13261" x1="713.059" y1="-120.68" x2="1669.78" y2="1161.1" gradientUnits="userSpaceOnUse">
<stop stop-color="#6AE4FF"/>
<stop offset="0.432292" stop-color="#236FFF"/>
<stop offset="0.583333" stop-color="#236FFF"/>
<stop offset="1" stop-color="#A38EFF"/>
</linearGradient>
<linearGradient id="paint5_linear_692_13261" x1="1342.91" y1="-29.3797" x2="1576.4" y2="368.184" gradientUnits="userSpaceOnUse">
<stop stop-color="#6AE4FF"/>
<stop offset="0.432292" stop-color="#236FFF"/>
<stop offset="0.583333" stop-color="#236FFF"/>
<stop offset="1" stop-color="#A38EFF"/>
</linearGradient>
</defs>
</svg>
