<svg width="18" height="18" viewBox="0 0 18 18" fill="none" xmlns="http://www.w3.org/2000/svg">
<path d="M0 9C0 13.9627 4.03732 18 9 18C13.9609 18 18 13.9627 18 9C18 4.03731 13.9627 0 9 0C4.03732 0 0 4.03731 0 9Z" fill="#E8EAED"/>
<path d="M12.8742 12.877C12.4448 13.3066 11.7474 13.3066 11.318 12.877L8.99851 10.5564L6.679 12.877C6.24963 13.3066 5.55218 13.3066 5.12281 12.877C4.69344 12.4475 4.69344 11.7497 5.12281 11.3201L7.44232 8.9995L5.12281 6.67889C4.69344 6.24932 4.69344 5.55154 5.12281 5.12197C5.33863 4.90604 5.62033 4.79922 5.90204 4.79922C6.18374 4.79922 6.46545 4.90604 6.68127 5.12197L9.00078 7.44258L11.3203 5.12197C11.5338 4.90604 11.8178 4.79922 12.0995 4.79922C12.3812 4.79922 12.6629 4.90604 12.8788 5.12197C13.3081 5.55154 13.3081 6.24932 12.8788 6.67889L10.5592 8.9995L12.8788 11.3201C13.3059 11.7497 13.3059 12.4475 12.8742 12.877Z" fill="#919BAB"/>
</svg>
